<svg xml:space="preserve" viewBox="51.558400000000006 222.8224 1198.0800000000002 366.592" version="1.1" xmlns:xlink="http://www.w3.org/1999/xlink" xmlns="http://www.w3.org/2000/svg" style="max-height: 500px" width="1198.0800000000002" height="366.592">
<desc>Created with Fabric.js 5.3.0</desc>
<defs>
</defs>
<g id="background-logo" transform="matrix(1 0 0 1 640 512)">
<rect height="1024" width="1280" ry="0" rx="0" y="-512" x="-640" paint-order="stroke" style="stroke: none; stroke-width: 0; stroke-dasharray: none; stroke-linecap: butt; stroke-dashoffset: 0; stroke-linejoin: miter; stroke-miterlimit: 4; fill: rgb(255,255,255); fill-rule: nonzero; opacity: 1;"/>
</g>
<g id="logo-logo" transform="matrix(1.4297287670506702 0 0 1.4297287670506702 213.53029426372615 405.64248107501476)">
<g paint-order="stroke" style="">
		<g transform="matrix(1.230293787872562 0 0 -1.230293787872562 -21.974469743401812 24.74508349954897)">
<path stroke-linecap="round" d="M 0 0 C -11.929 -6.996 -25.828 -10.992 -40.667 -10.992 C -85.253 -10.992 -121.41 25.164999999999996 -121.41 69.779 C -121.41 84.565 -117.441 98.392 -110.49 110.29499999999999 C -115.469 83.975 -110.145 55.62899999999999 -88.77699999999999 42.07599999999999 C -67.40799999999999 28.51899999999999 -42.56299999999999 32.166 -34.35499999999999 31.821999999999996 C -20.38199999999999 31.206999999999997 -14.02099999999999 17.647999999999996 -20.99699999999999 14.149999999999995 C -27.45699999999999 10.918999999999995 -29.62499999999999 15.874999999999995 -36.59999999999999 19.277999999999995 C -41.70299999999999 21.788999999999994 -51.237999999999985 23.905999999999995 -54.566999999999986 15.380999999999995 C -57.15399999999999 8.801999999999996 -48.749999999999986 3.6749999999999954 -37.01899999999999 3.6749999999999954 C -28.26999999999999 3.6749999999999954 -14.02099999999999 5.963999999999995 -4.977999999999994 11.118999999999996 C 4.684 16.612 7.74 6.484 0 0" transform="translate(58.51585638395631, -49.6515)" paint-order="stroke" style="stroke: none; stroke-width: 1; stroke-dasharray: none; stroke-linecap: butt; stroke-dashoffset: 0; stroke-linejoin: miter; stroke-miterlimit: 4; fill: rgb(44,144,226); fill-rule: nonzero; opacity: 1;"/>
</g>
		<g transform="matrix(1.230293787872562 0 0 -1.230293787872562 15.177765372847489 -73.21496786036434)">
<path stroke-linecap="round" d="M 0 0 C -12.619 14.813 -45.719 14.567 -58.019 11.535 C -70.341 8.503 -95.803 7.4830000000000005 -103.50399999999999 22.576999999999998 C -92.01799999999999 27.404999999999998 -72.38799999999999 31.006999999999998 -53.89999999999999 30.264999999999997 C -76.50299999999999 36.946999999999996 -102.579 33.668 -117.51499999999999 27.801 C -104.40399999999998 37.066 -88.38299999999998 42.492999999999995 -71.10699999999999 42.492999999999995 C -40.348 42.493 -13.605 25.287 0 0" transform="translate(58.75749999999999, -21.2465)" paint-order="stroke" style="stroke: none; stroke-width: 1; stroke-dasharray: none; stroke-linecap: butt; stroke-dashoffset: 0; stroke-linejoin: miter; stroke-miterlimit: 4; fill: rgb(111,180,235); fill-rule: nonzero; opacity: 1;"/>
</g>
		<g transform="matrix(1.230293787872562 0 0 -1.230293787872562 87.52826730316309 -47.01401620693633)">
<path stroke-linecap="round" d="M 0 0 L 0.024 -0.022 C 0.05 -0.047 0.077 -0.072 0.1 -0.1" transform="translate(-0.05, 0.05)" paint-order="stroke" style="stroke: none; stroke-width: 1; stroke-dasharray: none; stroke-linecap: butt; stroke-dashoffset: 0; stroke-linejoin: miter; stroke-miterlimit: 4; fill: rgb(8,36,58); fill-rule: nonzero; opacity: 1;"/>
</g>
		<g transform="matrix(1.230293787872562 0 0 -1.230293787872562 13.061498611509023 -34.16113700503169)">
<path stroke-linecap="round" d="M 0 0 C -10.154 16.266 -33.247 24.373 -64.795 17.497 C -109.973 7.638 -146.548 27.750999999999998 -139.375 55.505 C -113.276 33.1 -86.978 36.204 -67.259 38.15 C -47.542 40.073 -0.122 41.231 0 0" transform="translate(70.1387312257277, -27.7525)" paint-order="stroke" style="stroke: none; stroke-width: 1; stroke-dasharray: none; stroke-linecap: butt; stroke-dashoffset: 0; stroke-linejoin: miter; stroke-miterlimit: 4; fill: rgb(29,129,211); fill-rule: nonzero; opacity: 1;"/>
</g>
		<g transform="matrix(1.230293787872562 0 0 -1.230293787872562 11.15414254914117 20.754994686720693)">
<path stroke-linecap="round" d="M 0 0 C 6.063 18.63 3.575 40.769 -43.108 35.885 C -88.40799999999999 31.179 -114.50999999999999 49.614999999999995 -112.662 83.55099999999999 C -101.914 65.064 -62.97200000000001 59.34699999999999 -32.953 65.68299999999999 C 8.946 74.507 43.032 48.013 0 0" transform="translate(46.42735691311174, -41.775499999999994)" paint-order="stroke" style="stroke: none; stroke-width: 1; stroke-dasharray: none; stroke-linecap: butt; stroke-dashoffset: 0; stroke-linejoin: miter; stroke-miterlimit: 4; fill: rgb(20,91,148); fill-rule: nonzero; opacity: 1;"/>
</g>
</g>
</g>
<g id="text-logo" transform="matrix(1.9211538461538462 0 0 1.9211538461538462 824.4664004795115 413.93535392142456)">
<g paint-order="stroke" style="">
		<g id="text-logo-path-0" transform="matrix(1 0 0 1 0 0)">
<path stroke-linecap="round" d="M 2.45 0 L 18.72 0 C 26.26 0 30.53 -4.46 30.53 -10.93 C 30.53 -14.7 28.67 -17.3 25.53 -18.72 C 26.75 -19.99 27.44 -21.71 27.44 -23.86 C 27.44 -29.4 24.11 -32.83 17.64 -32.83 L 2.45 -32.83 Z M 19.85 -6.86 L 10.29 -6.86 L 10.29 -14.16 L 20.19 -14.16 C 22.54 -14.16 24.11 -12.64 24.11 -10.44 C 24.11 -8.28 22.54 -6.86 19.85 -6.86 Z M 17.89 -20.04 L 10.29 -20.04 L 10.29 -25.97 L 17.89 -25.97 C 20.19 -25.97 21.56 -24.99 21.56 -23.03 C 21.56 -21.02 20.19 -20.04 17.89 -20.04 Z M 47.24 0 L 69.78 0 L 69.78 -6.86 L 55.08 -6.86 L 55.08 -32.83 L 47.24 -32.83 Z M 103.54 0.54 C 109.81 0.54 115.35 -2.79 118.34 -7.99 C 119.85 -10.58 120.59 -13.38 120.59 -16.41 C 120.59 -22.49 117.35 -27.98 112.11 -31.07 C 109.52 -32.59 106.62 -33.37 103.54 -33.37 C 97.27 -33.37 91.73 -30.09 88.74 -24.89 C 87.22 -22.3 86.48 -19.45 86.48 -16.41 C 86.48 -10.34 89.72 -4.85 94.96 -1.76 C 97.56 -0.24 100.45 0.54 103.54 0.54 Z M 94.57 -16.41 C 94.57 -21.46 98.59 -25.48 103.54 -25.48 C 108.53 -25.48 112.5 -21.46 112.5 -16.41 C 112.5 -11.37 108.49 -7.35 103.54 -7.35 C 98.54 -7.35 94.57 -11.37 94.57 -16.41 Z M 155.23 -10.54 L 161.16 -10.54 C 159.54 -8.58 157.09 -7.35 154.35 -7.35 C 149.35 -7.35 145.38 -11.37 145.38 -16.41 C 145.38 -21.46 149.4 -25.48 154.35 -25.48 C 157.49 -25.48 160.38 -23.81 161.99 -21.22 L 168.9 -25.23 C 165.82 -30.18 160.43 -33.37 154.35 -33.37 C 148.08 -33.37 142.54 -30.09 139.55 -24.89 C 138.03 -22.3 137.3 -19.45 137.3 -16.41 C 137.3 -10.34 140.53 -4.85 145.78 -1.76 C 148.37 -0.24 151.26 0.54 154.35 0.54 C 157.73 0.54 160.92 -0.44 163.56 -2.11 L 163.56 0 L 171.4 0 L 171.4 -17.39 L 155.23 -17.39 Z M 201.68 -33.32 C 194.09 -33.32 188.9 -29.35 188.9 -23.13 C 188.9 -18.18 191.79 -15.04 197.57 -13.77 L 204.33 -12.3 C 206.49 -11.86 207.56 -11.07 207.56 -9.95 C 207.56 -8.23 205.9 -7.35 202.57 -7.35 C 199.87 -7.35 197.13 -8.92 196.2 -11.42 L 188.11 -8.58 C 189.48 -2.7 195.07 0.49 202.13 0.49 C 206.68 0.49 210.99 -0.98 213.54 -4.17 C 214.82 -5.73 215.45 -7.69 215.45 -10 C 215.45 -14.95 212.51 -18.08 206.58 -19.4 L 199.87 -20.92 C 198.16 -21.32 196.98 -22.1 196.98 -23.13 C 196.98 -24.84 198.99 -25.48 201.59 -25.48 C 204.77 -25.48 206.83 -24.7 207.27 -22 L 214.82 -24.94 C 213.2 -30.43 208.15 -33.32 201.68 -33.32 Z M 240 0 L 240 -11.03 L 248.33 -11.03 C 254.21 -11.27 258.82 -15.97 258.82 -21.95 C 258.82 -27.88 254.21 -32.59 248.33 -32.83 L 232.16 -32.83 L 232.16 0 Z M 246.96 -17.89 L 240 -17.89 L 240 -25.97 L 246.96 -25.97 C 249.36 -25.97 250.98 -24.3 250.98 -21.9 C 250.98 -19.5 249.36 -17.89 246.96 -17.89 Z M 283.37 0 L 283.37 -12.99 L 297.09 -12.99 L 297.09 0 L 304.93 0 L 304.93 -32.83 L 297.09 -32.83 L 297.09 -19.85 L 283.37 -19.85 L 283.37 -32.83 L 275.53 -32.83 L 275.53 0 Z M 321.64 0 L 345.16 0 L 345.16 -6.86 L 329.48 -6.86 L 329.48 -12.99 L 342.22 -12.99 L 342.22 -19.85 L 329.48 -19.85 L 329.48 -25.97 L 345.16 -25.97 L 345.16 -32.83 L 321.64 -32.83 Z M 389.26 0 L 381.86 -11.86 C 385.78 -13.47 388.52 -17.35 388.52 -21.95 C 388.52 -27.88 383.92 -32.59 378.04 -32.83 L 361.87 -32.83 L 361.87 0 L 369.71 0 L 369.71 -11.03 L 372.84 -11.03 L 379.75 0 Z M 376.66 -17.89 L 369.71 -17.89 L 369.71 -25.97 L 376.66 -25.97 C 379.06 -25.97 380.68 -24.3 380.68 -21.9 C 380.68 -19.5 379.06 -17.89 376.66 -17.89 Z M 405.97 0 L 429.49 0 L 429.49 -6.86 L 413.81 -6.86 L 413.81 -12.99 L 426.55 -12.99 L 426.55 -19.85 L 413.81 -19.85 L 413.81 -25.97 L 429.49 -25.97 L 429.49 -32.83 L 405.97 -32.83 Z" transform="translate(-215.97, 16.415)" paint-order="stroke" style="stroke: none; stroke-width: 0; stroke-dasharray: none; stroke-linecap: butt; stroke-dashoffset: 0; stroke-linejoin: miter; stroke-miterlimit: 4; fill: rgb(21,93,153); fill-rule: nonzero; opacity: 1;"/>
</g>
</g>
</g>
</svg>